<?xml version="1.0" encoding="UTF-8"?> <svg xmlns="http://www.w3.org/2000/svg" xmlns:xlink="http://www.w3.org/1999/xlink" width="448px" height="512px" viewBox="0 0 448 512"> <!-- Generated by Pixelmator Pro 1.6.1 --> <path id="Путь" d="M400 32 L48 32 C35.27 32 23.061 37.057 14.059 46.059 5.057 55.061 -0 67.27 -0 80 L-0 432 C-0 444.73 5.057 456.939 14.059 465.941 23.061 474.943 35.27 480 48 480 L185.25 480 185.25 327.69 122.25 327.69 122.25 256 185.25 256 185.25 201.36 C185.25 139.21 222.25 104.88 278.92 104.88 306.06 104.88 334.44 109.72 334.44 109.72 L334.44 170.72 303.17 170.72 C272.36 170.72 262.75 189.84 262.75 209.45 L262.75 256 331.53 256 320.53 327.69 262.75 327.69 262.75 480 400 480 C412.73 480 424.939 474.943 433.941 465.941 442.943 456.939 448 444.73 448 432 L448 80 C448 67.27 442.943 55.061 433.941 46.059 424.939 37.057 412.73 32 400 32 Z" fill="#f59baf" fill-opacity="1" stroke="none"></path> </svg> 