<?xml version="1.0" encoding="UTF-8"?> <svg xmlns="http://www.w3.org/2000/svg" xmlns:xlink="http://www.w3.org/1999/xlink" width="448px" height="512px" viewBox="0 0 448 512"> <!-- Generated by Pixelmator Pro 1.6.1 --> <path id="Путь" d="M224 202.66 C194.544 202.671 170.673 226.557 170.68 256.013 170.687 285.47 194.57 309.344 224.027 309.34 253.483 309.336 277.36 285.456 277.36 256 277.34 226.546 253.461 202.673 224.003 202.66 Z M348.71 161.66 C343.221 147.75 332.21 136.739 318.3 131.25 297.3 122.96 247.3 124.82 224 124.82 200.7 124.82 150.75 122.89 129.69 131.25 115.78 136.739 104.769 147.75 99.28 161.66 91 182.66 92.85 232.71 92.85 255.99 92.85 279.27 91 329.26 99.32 350.33 104.809 364.24 115.82 375.251 129.73 380.74 150.73 389.03 200.73 387.17 224.04 387.17 247.35 387.17 297.28 389.1 318.34 380.74 332.25 375.251 343.261 364.24 348.75 350.33 357.1 329.33 355.18 279.28 355.18 256 355.18 232.72 357.1 182.74 348.75 161.67 Z M224 338 C190.834 338 160.934 318.021 148.242 287.38 135.55 256.739 142.565 221.469 166.017 198.017 189.469 174.565 224.739 167.55 255.38 180.242 286.021 192.934 306 222.834 306 256 306.027 277.754 297.397 298.627 282.013 314.011 266.63 329.395 245.758 338.026 224.002 338 Z M309.38 189.7 C301.638 189.704 294.655 185.043 291.69 177.891 288.724 170.74 290.359 162.506 295.832 157.03 301.306 151.553 309.539 149.914 316.692 152.876 323.846 155.838 328.51 162.818 328.51 170.56 328.531 175.638 326.53 180.515 322.947 184.114 319.365 187.713 314.497 189.737 309.42 189.74 Z M400 32 L48 32 C35.27 32 23.061 37.057 14.059 46.059 5.057 55.061 -0 67.27 -0 80 L-0 432 C-0 444.73 5.057 456.939 14.059 465.941 23.061 474.943 35.27 480 48 480 L400 480 C412.73 480 424.939 474.943 433.941 465.941 442.943 456.939 448 444.73 448 432 L448 80 C448 67.27 442.943 55.061 433.941 46.059 424.939 37.057 412.73 32 400 32 Z M382.88 322 C381.59 347.63 375.74 370.34 357.03 389 338.32 407.66 315.63 413.63 290.03 414.85 263.62 416.34 184.44 416.34 158.03 414.85 132.4 413.56 109.77 407.7 91.03 389 72.29 370.3 66.4 347.58 65.18 322 63.69 295.58 63.69 216.39 65.18 190 66.47 164.37 72.25 141.66 91.03 123 109.81 104.34 132.5 98.44 158.03 97.22 184.44 95.73 263.62 95.73 290.03 97.22 315.66 98.51 338.36 104.37 357.03 123.07 375.7 141.77 381.66 164.49 382.88 190.12 384.37 216.44 384.37 295.56 382.88 322 Z" fill="#f59baf" fill-opacity="1" stroke="none"></path> </svg> 